<svg xmlns="http://www.w3.org/2000/svg" data-name="Layer 1" viewBox="0 0 100 125" x="0px" y="0px"><title>Restaurant</title><path d="M79.7666,50.00018A29.7666,29.7666,0,1,0,35.22949,75.8266a102.24107,102.24107,0,0,0,.55664-14.68512c-.09082-3.34851-.76416-5.284-3.25537-7.06177-2.6914-1.92071-3.20312-3.44958-2.98633-5.92743L30.91968,32.4397a.97336.97336,0,0,1,.8811-.89893.94782.94782,0,0,1,1.012,1.00458L31.896,47.21118a.94764.94764,0,0,0,.9458,1.00684h.37256a.94769.94769,0,0,0,.947-.91217l.55737-14.85517a.94747.94747,0,0,1,.94678-.91217h.00488a.94759.94759,0,0,1,.94751.95954l-.18457,14.76043a.94775.94775,0,0,0,.94751.95954h.37524a.94759.94759,0,0,0,.94751-.95954L38.519,32.49805a.9478.9478,0,0,1,.94776-.95954h.00464a.94769.94769,0,0,1,.947.91217l.55713,14.85517a.94769.94769,0,0,0,.947.91217h.3728a.94764.94764,0,0,0,.9458-1.00684l-.917-14.66583a.94782.94782,0,0,1,1.012-1.00458.97316.97316,0,0,1,.88111.89893l1.37548,15.71258c.2168,2.47785-.29516,4.00672-2.98657,5.92743-2.49121,1.77777-3.16455,3.71326-3.25513,7.06177a101.105,101.105,0,0,0,.833,16.9538,29.69774,29.69774,0,0,0,17.46509.66961c.71-6.3219,1.52393-13.57959,1.60107-20.00238.02881-2.39667-1.429-4.14642-2.81347-5.66772-2.1128-2.32123-4.623-5.17584-4.623-9.97888,0-6.39411,4.18311-11.5774,9.343-11.5774,5.16015,0,9.34326,5.18341,9.34326,11.57733,0,4.803-2.51025,7.6576-4.62305,9.979-1.38476,1.52136-2.84228,3.27112-2.81347,5.66772.0664,5.52429.678,11.66541,1.29956,17.29859A29.78517,29.78517,0,0,0,79.7666,50.00018Z"/><path d="M50,83.56659a33.45326,33.45326,0,0,1-9.22852-1.30035A92.03661,92.03661,0,0,1,41.876,94.25452a44.97685,44.97685,0,0,0,15.0542.21319,11.03575,11.03575,0,0,1-.23633-1.163c-.30225-2.05139.01245-5.86511.51147-10.52515A33.54318,33.54318,0,0,1,50,83.56659Z"/><path d="M50,5A44.99922,44.99922,0,0,0,33.34937,91.80487c.23632-4.5639.81811-8.10113,1.36084-11.938a33.56215,33.56215,0,1,1,30.10522.24329,95.299,95.299,0,0,1,.904,12.06183A45.004,45.004,0,0,0,50,5Z"/><text x="0" y="115" fill="#000000" font-size="5px" font-weight="bold" font-family="'Helvetica Neue', Helvetica, Arial-Unicode, Arial, Sans-serif">Created by Lnhi</text><text x="0" y="120" fill="#000000" font-size="5px" font-weight="bold" font-family="'Helvetica Neue', Helvetica, Arial-Unicode, Arial, Sans-serif">from the Noun Project</text></svg>